
<svg width="457px" height="360px" viewBox="127 26 457 360" version="1.1" xmlns="http://www.w3.org/2000/svg" xmlns:xlink="http://www.w3.org/1999/xlink">
    <!-- Generator: Sketch 41.1 (35376) - http://www.bohemiancoding.com/sketch -->
    <desc>Created with Sketch.</desc>
    <defs></defs>
    <g id="Illustration" stroke="none" stroke-width="1" fill="none" fill-rule="evenodd" transform="translate(127.000000, 26.000000)">
        <g id="Group-21" transform="translate(228.342558, 180.120489) scale(-1, -1) rotate(14.000000) translate(-228.342558, -180.120489) translate(27.342558, 45.120489)" fill="#F6F9FC" opacity="0.7">
            <rect id="Rectangle-13" x="0.311638366" y="0.369925625" width="352.915212" height="89.7259759" rx="44.862988"></rect>
            <rect id="Rectangle-13" x="30.2761375" y="89.7259759" width="371.226851" height="89.7259759" rx="44.862988"></rect>
            <rect id="Rectangle-13" x="0.311638366" y="179.451952" width="371.226851" height="89.7259759" rx="44.862988"></rect>
        </g>
        <path d="M310.713302,145.306369 C310.713302,145.306369 326.935028,128.359034 323.69276,120.881287 C320.450492,113.40354 286.121248,113.306369 286.121248,113.306369" id="Path-5" stroke="#6E7585" stroke-width="6" stroke-linecap="round" stroke-linejoin="round" transform="translate(305.121248, 129.306369) rotate(76.000000) translate(-305.121248, -129.306369) "></path>
        <path d="M213.397026,289.388992 C210.253258,289.119995 205.061774,288.610447 204.867832,288.590987 C192.269933,287.326919 184.829585,285.698931 184.829585,285.698931 C179.400855,284.699272 175,279.412436 175,273.896056 L175,88.1409812 C175,82.6220919 179.337862,77.0407727 184.724074,75.8022978 C184.724074,75.8022978 204.25,70 233.5,70 C241.090953,70 248.026984,70.3907877 254.13677,70.9695287 M268.372181,72.8137836 C277.22548,74.2837177 282.317012,75.775226 282.317012,75.775226 C287.664779,77.0857547 292,82.6246015 292,88.1409812 C292,88.1409812 292.000002,161.880864 292.000002,192.530535 M292,213.34815 L292,222.782441 M292,238.110437 L292,273.896056 C292,279.414945 287.609379,284.728996 282.163183,285.666738 C282.163183,285.666738 262.75,290 233.5,290 C231.990296,290 230.506796,289.988456 229.050819,289.96656" id="Rectangle-9" stroke="#7C8495" stroke-width="4" stroke-linecap="round" stroke-linejoin="round" fill="#F6F9FC"></path>
        <path d="M186,118.431439 L186,98.0069975 C186,95.7939939 187.79202,94 189.991167,94 L277.008833,94 C279.213094,94 281,95.7916282 281,98.0045166 L281,251.995483 C281,254.207117 279.20798,256 277.008833,256 L189.991167,256 C187.786906,256 186,254.214495 186,251.997764 L186,134.672176 L186,134.672176" id="Rectangle-9" stroke="#7C8495" stroke-width="4" stroke-linecap="round" stroke-linejoin="round" fill="#FFFFFF"></path>
        <circle id="Oval-3" fill="#84DBBB" cx="207" cy="183" r="5"></circle>
        <rect id="Rectangle-11" fill="#84DBBB" x="219" y="181" width="46" height="4" rx="2"></rect>
        <circle id="Oval-3" fill="#84DBBB" cx="207" cy="205" r="5"></circle>
        <rect id="Rectangle-11" fill="#84DBBB" x="219" y="203" width="46" height="4" rx="2"></rect>
        <circle id="Oval-3" fill="#84DBBB" cx="207" cy="227" r="5"></circle>
        <rect id="Rectangle-11" fill="#84DBBB" x="219" y="225" width="46" height="4" rx="2"></rect>
        <path d="M213.271131,127.529777 C213.271131,127.529777 213.683884,123.316007 217.049173,122.611286 C220.414462,121.906564 222.271131,126.003334 222.271131,126.003334" id="Path-8" stroke="#7C8495" stroke-width="4" stroke-linecap="round" stroke-linejoin="round" transform="translate(217.771131, 125.029777) rotate(7.000000) translate(-217.771131, -125.029777) "></path>
        <path d="M244.271131,127.529777 C244.271131,127.529777 244.683884,123.316007 248.049173,122.611286 C251.414462,121.906564 253.271131,126.003334 253.271131,126.003334" id="Path-8" stroke="#7C8495" stroke-width="4" stroke-linecap="round" stroke-linejoin="round" transform="translate(248.771131, 125.029777) rotate(7.000000) translate(-248.771131, -125.029777) "></path>
        <path d="M219,83.3499532 C219,82.0521099 220.049258,80.8672077 221.32417,80.7214442 C221.32417,80.7214442 226.25,80 233.5,80 C240.75,80 245.67583,80.7214442 245.67583,80.7214442 C246.959434,80.8752863 248,82.0509529 248,83.3499532 L248,82.6500468 C248,83.9478901 246.950742,84.8672077 245.67583,84.7214442 C245.67583,84.7214442 240.75,84 233.5,84 C226.25,84 221.32417,84.7214442 221.32417,84.7214442 C220.040566,84.8752863 219,83.9490471 219,82.6500468 L219,83.3499532 Z" id="Rectangle-10" fill="#E1EBF7"></path>
        <path d="M189.620488,175.35777 C189.620488,175.35777 205.842214,158.410436 202.599946,150.932688 C199.357678,143.454941 150.533018,145.570419 150.533018,145.570419" id="Path-5" stroke="#6E7585" stroke-width="6" stroke-linecap="round" stroke-linejoin="round" transform="translate(176.780726, 160.325981) rotate(-148.000000) translate(-176.780726, -160.325981) "></path>
        <circle id="Oval" fill="#E1EBF7" cx="234" cy="273" r="9"></circle>
        <path d="M228.629516,151.040458 C227.36186,153.804324 231.297162,155.933859 236.223781,155.360234 C241.150401,154.786609 244.80205,150.18624 243.598991,148.130542 C242.395932,146.074844 229.897172,148.276592 228.629516,151.040458 Z" id="Path-10" fill="#7C8495"></path>
        <ellipse id="Oval-11" fill="#18AEEE" opacity="0.400000006" cx="386" cy="66" rx="6" ry="6"></ellipse>
        <ellipse id="Oval-11" fill="#18AEEE" opacity="0.6" cx="366.5" cy="86.5" rx="3.5" ry="3.5"></ellipse>
        <ellipse id="Oval-11" fill="#18AEEE" opacity="0.659165112" cx="397.5" cy="106.5" rx="5.5" ry="5.5"></ellipse>
        <circle id="Oval-11" fill="#18AEEE" opacity="0.5" cx="121.5" cy="209.5" r="5.5"></circle>
        <ellipse id="Oval-11" fill="#18AEEE" opacity="0.35389459" cx="104.5" cy="237.5" rx="3.5" ry="3.5"></ellipse>
        <circle id="Oval-11" fill="#18AEEE" opacity="0.667910448" cx="105.5" cy="176.5" r="3.5"></circle>
        <g id="Group-23" opacity="0.7" transform="translate(121.500000, 45.000000) rotate(-90.000000) translate(-121.500000, -45.000000) translate(114.000000, 37.000000)" stroke="#11B9F3" stroke-width="7" stroke-linecap="round">
            <path d="M1.76747506e-12,7.8669612 L14.8041906,7.8669612" id="Line"></path>
            <g id="Group-22" transform="translate(7.109459, 7.966852) rotate(-270.000000) translate(-7.109459, -7.966852) translate(-0.390541, 5.466852)">
                <path d="M-5.15143483e-14,2.20274914 L14.8041906,2.20274914" id="Line"></path>
            </g>
        </g>
        <g id="Group-23" opacity="0.770230877" transform="translate(346.196152, 307.196152)" stroke="#10B9F3" stroke-width="6" stroke-linecap="round">
            <path d="M1.47792889e-12,8.54812657 L17.0962531,8.54812657" id="Line"></path>
            <g id="Group-22" transform="translate(8.185158, 9.000000) rotate(-270.000000) translate(-8.185158, -9.000000) translate(-0.814842, 6.500000)">
                <path d="M9.5567998e-13,2.13703164 L17.0962531,2.13703164" id="Line"></path>
            </g>
        </g>
        <g id="Group-23" opacity="0.5" transform="translate(421.000000, 199.000000)" stroke="#11B9F3" stroke-width="6" stroke-linecap="round">
            <path d="M1.36424205e-12,5.99528966 L11.5230731,5.99528966" id="Line"></path>
            <g id="Group-22" transform="translate(5.768930, 6.243428) rotate(-270.000000) translate(-5.768930, -6.243428) translate(-0.231070, 4.743428)">
                <path d="M2.14939178e-13,1.49882242 L11.5230731,1.49882242" id="Line"></path>
            </g>
        </g>
    </g>
</svg>