<svg width="159" height="175" viewBox="0 -13 159 175" xmlns="http://www.w3.org/2000/svg">
  <g fill="none" fill-rule="evenodd">
    <path fill-opacity=".1" fill="#F1F1F6" d="M0 0h159v162H0z"/>
    <path d="M60 45.8C62.2 27.4 69.8 9.3 80.4 10 93.2 11 95.2 23.5 96 25h-3.4c-8-6.6-13.3 4.2-14.8 20.7 18.5-2 34-16 34.5-21.4.5-4.8-5.8-8.5-10.7-9v-4.8c12.6 1.7 25.6 6.7 26.3 16 1 15.4-28.8 31.2-50.5 35 .7 17 4.4 28 9.4 28 5.3 0 8-19.2 8-19.2s10.6-3 7.2-1.2c-2 18-11.6 35.8-21 35.4C69.7 103.8 60.7 86 59.6 62c-16.6-1.2-28-7.8-28-17 .8-13 10.3-22 29.3-28.6l1.7 4C50 25.7 42 32.2 43.7 38.2c1 4 5.5 7.3 16.3 7.6z" stroke="#006AFD" stroke-width=".5" fill="#017EF9"/>
    <path d="M35.3 127.4c-.2 0-.4.3-.8.6l-1 1-1 1.2-1 1.2c1.2 1.7.8 2.6-1 2.5H30c-.4 0-.7 0-1 .2-.5 0-1 .3-1.4.5l-1.3.6v6.1c-.2.7-.2 1.5-.2 2.4 0 1.2 0 2.4-.3 3.6L25 151v.4h-.5c-.2 0-.3-.3-.4-.6l-.3-1.3c0-.3 0-.7-.2-1V147l-.2-1.4v-1l-.2-2.2V139v-1.8l-1.7.8-1.4.2h-1.2l-1.2-.6c0 .8 0 1.4-.4 1.6-.4.2-1 0-1.7-.6-1.4-1-2.2-2-2.7-3-.4-1-.5-2-.2-3.2l.3-2.3c0-.5-.4-1-1-1.5l-.5-1c0-.3.2-.3.6 0 .7 0 1.2.4 1.6.8.5.3 1 .7 1.5 1.3 1.4-1 2.6-2 4-2.7l4-3-.6-1.5-.5-1.8c-.2-.6-.2-1.3 0-2 0-.6 0-1.4.2-2.2 0-.6.3-1 .7-1.2.2-.2.6-.3 1-.2l1.4.7 1 1c.2.5.3 1 .5 1.2 0 .3 0 .6.2 1v1.2c0 .5 0 1-.2 1.8l2-.7 2.2-.2c.7 0 1.4.2 2 .4.6.2 1 .5 1.5 1 1 1 1.6 2 1.7 3 .2 1-.2 1.7-1 2zm-12-10s0-.2-.3-.2c-.2 0-.3 0-.4.2-.2.8 0 1.6 0 2.4l.6 2.2c0-.2 0-.6.2-1v-1.2-1.3-1zm9 8.3c.5-.8.7-1.3.5-1.6-.3 0-.8-.3-1.6-.2h-1l-1.4.4-1.2.5-.8.6-.2 2v2.3c.3.5.7.8 1.2.8.4 0 .8 0 1-.5l1.7-2 1.8-2.3zm-9 2l-2 1.6-1.8 1.5c-.6.5-1 1-1.6 1.3-.5.5-1 1-1 1.2v2.4c.2 0 1 0 2-.5 1-.3 2.4-1.2 4.2-2.6V130v-1.4-1zm49.6 14.2c-.4 2-1 3.6-2 4.6-1.2 1-2.7 1.5-4.7 1.5s-3.8-.2-5.2-.7c-1.3-.4-2.5-1.2-3.5-2.4l-.4.4c0 .2 0 .4-.3.5-.2 0-.5.3-.8.6-.4.2-.7.2-1 .2-.8 0-1.5-.3-2.3-.8-.8-.4-1.5-1-2-1.6-.8-.7-1.3-1.6-1.7-2.6-.5-1-.7-2-.7-3.4 0-1.6 0-3.2.4-4.7.2-1.6.6-3.3 1-5 .4-1 .6-2 .8-3 .2-.7.4-1.4.4-2 0 0 0-.2.2-.2 0 0 .2 0 .5.3 1.3 1.4 2 2.7 2 4 0 1-.2 2.2-1 3.3l-1 2-.7 2.5c0 1-.2 1.7 0 2.7 0 1 .3 1.8.8 2.7l1.4 2c.3.5.7.8 1 1h1l.8-.8c-.5-.7-1-1.2-1.2-1.7l-.7-1c0-.4-.3-.7-.4-1l-.4-1c.4.8 1 1.5 1.5 2.2.6.7 1 1.2 1.5 1.5v-.8-1c0-.5 0-1 .3-1 .3-.4.6-.6 1-.7l1.2-.3h1v-1-.7-.4H58c-.5 0-1 0-1.3-.2-.4 0-.7 0-1-.3-.2-.2-.3-.4-.3-.7 0-.2 0-.4.4-.7l1-1c.4 0 .8-.4 1.3-.6.5-.2 1-.4 1.4-.4v-2c0-.5-.3-.7-.5-.7-.8 0-1.4.3-1.8.4l-1.3.8c-.5.3-1 .7-1.3 1.3l-1.2 2c-.2-.3-.2-.8 0-1.6 0-.7.4-1.5 1-2.4 1-2 2-3.4 3-4.4.8-1 2-1.4 3.5-1.4 1.3 0 2.2.4 2.6 1 .5.6.6 1.4.2 2.2-.4.7-.6 1.4-.7 2v2.3c.4.5.8 1 1 1.5 0 .6 0 1-.3 1.6l-1 1.7-.8 1.6h1c.5 0 .8-.2 1-.3l.5-3c0-.7.2-1.2.3-1.7v-1.2c0-.4.2-.7.5-1h2l1 .7c.3.4.6.8.7 1.3 0 .5.2 1 0 1.3 0 .5 0 .8-.3 1-.2.2-.4.3-.7.2l-2.4-.3c0 .8.2 1.6.3 2.3v2.5c0 .2 0 .4-.2.6-.2.4-.4.7-.8 1-.5 0-1 .4-1.8.6l-3.2.6h-2v.6l1 .6 1.8.4c.7.2 1.4.2 2.3.3 1 0 2 0 3-.2 1.2 0 2-.4 2.4-1 .5-.8.8-1.8 1-3V136c.2-1.3 0-2.8 0-4.5 0-1.7-.3-3.2-.4-4.3l-.5-2.8-.7-2-1-1.3c-.6-.6-1.3-1-2-.8-.7 0-1.5.4-2.3 1.2l-1 .8-1.2.4-1.5.2h-3l-.3.3c0 .2 0 .3-.2.5v.7c-.2 0-.2-.3-.2-.4v-.5-.7-.6c.3-.4.5-.8 1-1 .2-.5.6-.8 1-1 .6-.5 1-.8 1.6-1l1.7-1c1-.3 2-.5 3-.4 1 0 2 .3 3.4.8 1.7.7 3 1.6 3.8 3 .8 1 1.3 2.6 1.5 4.2l.8 6.3.4 4.4v3c0 1-.2 1.7-.3 2.5zm-7-8.7c0-.4-.3-.6-.6-.6-.2 0-.4.5-.4 1.4l-.2 2c0 .7 0 1.3-.3 2 0 .4.2.6.4.5v-.4c.2-.4.3-1 .3-1.7V134c.2 0 .2 0 .2.2v.3c.4 0 .5-.2.7-.4v-.7zm33.2 14.3c-1.4-.3-2.5-1-3.4-2-1-1-1.5-2.3-2-3.8l-1.5.4-1.4.2c-.6 0-1 0-1.3-.2-.3 0-.5-.2-.6-.4l-2.2-5.4c-.6-2-1-3.7-1-5.4v-1.7c0-.3 0-.8-.2-1.3s-.2-.8 0-1l1 .4.7.5c.3 0 .5.2.7.3l.6.6c.2 0 .5.4.8.7l1.2-1.7c.4-.5.8-.8 1.3-1 .4-.4 1-.6 1.6-.8l2.2-.7v-2-2c0-.4-.2-.6-.4-.7-.2 0-.4.2-.4.5 0 .2 0 .4-.2.5 0 0-.2.2-.4 0l-.4-.5-.3-1.4c0-.8.2-1.4.5-1.8.2-.5.5-.8 1-1 .2 0 .6-.2 1 0 .3 0 .6.2 1 .5l1.3 1.8.8 1.4.3 1.4v2c.3 0 .7 0 1.2-.2h1.6c.6 0 1.3 0 2 .3l2 .8 1.7 1.3c.6.5 1 1 1.2 1.6.3.6.4 1 .4 1.6 0 .5-.2.8-.5 1-.3.5-.7.7-1 1-.3 0-.7.4-1 .7l-1.6 1.7-2.3 3.2c.7 1 1 1.7 1 2.2-.2.5-.8.6-1.8.4-.8-.2-1.5-.3-2.2-.2-.6 0-1.4.2-2.3.5v2c0 .5.2 1 .5 1.2.3.3.8.5 1.4.6.7.2 1.6.2 2.7 0 .7.2 1.3.2 2 .2h2c.8 0 1.5-.2 2-.3l1.4-.5c.5 0 .8-.4 1-.7.4-.3.6-.7.8-1.3l.4-2.2V136c-.2-1 0-1.4 0-1.4.3 0 .4.2.5.7l.4 1.2c0 .4.2.8.3 1l.7 1.7.6 2.3.2.8c0 .2 0 .4.2.5 0 .2 0 .4.2.5l.4.7.2 1c0 .2 0 .5-.4.8-.2.3-.6.6-1 .8-.7.3-1.4.5-2.2.6l-6.5.6c-2 0-4.3 0-6.5-.2zm5.5-20v-1.2l-1-.2h-1.3l-1 .3c-.3 0-.7 0-1 .2-.4 0-.8.3-1.2.4l-.2 1.4v1.5c.2 0 .6 0 1-.2h2.7l1 .5c.3-.5.6-1 .7-1.6l.3-1.2zM94.5 135h-.8l-1.2-.4-1.2-.3c-.5 0-.8-.2-1-.4v2.2c0 .7.2 1.6.4 2.6l2.8-1.6 1.3-1c.2-.3.3-.5.2-.7 0 0-.2-.3-.5-.4zm1.3-6.7c-1.8.6-3.2 1.3-4.2 2S90 132 90.2 133l1-.7c.5 0 1-.3 1.5-.5.4 0 1-.3 1.4-.5l1.4-.6.2-1.4c0-.4 0-.7.2-1zm3.7 5.8v1.5c0 .3 0 .5.2.7 0 .3.2.4.4.5l1.4-2 1-2-1.3.5c-.4.2-1 .5-1.5 1zm.2 2.7c0-.5-.2-.8-.4-1-.2-.5-.5-.7-.7-.8-.5.4-.7.8-.8 1v1c.4-.2.7-.2 1-.2h1zm30.8-13c-.3 0-.5.5-1 1-.3.5-.7 1-1 1.8l-1 1.4c-.3.4-.5.8-.8 1l.6 1 .4.8.2.8v9.3l-.2 2.8v2.3l-.2 1.2-.4 1c-.2.2-.3.3-.5.3l-.6-.6c0-.4-.4-1-.8-1.7 0-.3-.3-.6-.4-1 0-.2 0-.5-.2-.8v-1l.3-1.3c0-.7 0-1.5.2-2.5v-3-3-1.8c0-.2-.2-.3-.3-.3 0 0-.3 0-.5.2-.2 0-.4.3-.8.6l-1.4 1.5c-.7 1-1.3 1.3-1.7 1.2-.4 0-.7-.8-1-2v-1c0-.3 0-.7.2-1 0-.4 0-.7.3-1 .2-.3.4-.4.6-.4.3 0 .5 0 .7-.2.2 0 .4-.4.7-.8l2.8-4 1.6-2.7c.4-.7.6-1.2.6-1.7v-1c-.2 0-.2-.2-.2-.5v-.4h.3c.3 0 .4.2.7.3l.6.2c.5 0 1 .2 1.3.6.4.3.8.7 1 1.2.3.4.4 1 .4 1.4 0 .5-.2 1-.5 1.4zm19.4.7c.2.6.3 1 .2 1.4 0 .3-.4.5-1 .6-.4 0-.8 0-1.3.2-.6 0-1 0-1.6.2l-1.5.3-1 .4-1.7.6c.7.2 1.2.5 1.5 1 .3.2.5.5.5.8 0 .2 0 .5-.2.7 0 .2-.3.4-.6.5-1 .4-1.6.8-2.3 1.2-.5.4-1 .8-1.4 1.4.5 0 1-.3 1.6-.4.5 0 1-.3 1.3-.5.6-.3 1-.3 1.7 0 .6 0 1 .5 1.4 1v1.1c0 .2-.2.4-.4.5-.2.2-.4.2-.8.2h-1.2c-.3 0-.7 0-1 .3-.7.2-1 .4-1.4.4-.3 0-.5 0-.7-.3l-1.8.8-1.5.7c-.5.4-.8.6-1 .6l-.3 1c0 .2.3.4.7.5l1-.3 1.4-.5 1.3-.3.7-.2c.4 0 .7 0 1-.2.2 0 .4-.2.5-.4.2-.3.6-.4 1-.3.6 0 1.3.4 2 .8l.7.8.5 1v1.2l-.3.4-.4.6c-.2.8-.5 1.4-1 2v.6l.6.6.2.4v.6c0 .2 0 .4-.3.6 0 .2 0 .3-.3.3l-1 .2c-.4 0-1 0-1.5-.2-.5 0-1-.2-1.4 0-.5 0-1 0-1.4.2-.4 0-.8.3-1 .5-.4.2-.6.3-.7.5-.2.3-.3.4-.5.4l-.6-.5c-.2 0-.4-.2-.6-.6 0-.3-.3-.6-.4-1l-.4-1.2c0-.4 0-.8-.2-1.2l-.2-1.2c0-.4-.2-.8-.3-1-.3-.8-.3-1.5-.2-2 0-.7.3-1.2.6-1.6-1-.5-1.5-1-1.8-1.2-.3-.3-.4-.6-.4-1v-1c.3 0 .5-.2.6-.3.4 0 .8 0 1.3-.3.5 0 1-.2 1.4-.3.6 0 1-.3 1.4-.5l1-.6c-.7 0-1.4-.2-2-.4-.8-.2-1.3-.4-1.7-.7l-.5-.6v-.7c0-.3 0-.6.3-.7h1.8l1.4-.4c.5 0 1.3-.4 2.3-.7l.7-.4v-.4h-.5c-.3.2-.5.2-.8.2-.4 0-1 0-1.2.3h-.7l.3-.2 1.3-.6 1.3-.7c.4 0 .8-.4 1.2-.6l1.5-.7c.3-.2.3-.4.2-.5 0-.2-.3-.2-.6 0-1.3.3-2.6.8-3.7 1.3-1.2.5-2.2 1-3 1.7-.8.6-1.4 1-2 1-.6.3-1 .3-1.6.3-.4 0-1-.3-1.2-.6l-1-1c-.4-.5-.5-.8-.4-1 0-.4.4-.5 1-.4h.6c.3 0 .6-.2 1-.4l1.7-.7 2.8-1.4 1.5-1c.2-.4.3-.6.2-.8l-1.2-1.3-1-1.6c-.4-.4-.5-.7-.4-.8 0-.2.3-.3.7-.3h2c.6-.2 1 0 1.7.2.5.2 1 .6 1.4 1 .2 0 .3.2.5.4l.2 1V122.2l-.2.7v.5l3.2-.5c.8 0 1.5-.2 2 0 .6 0 1 0 1.4.4l1 1zm-8 18.6c.7-1.2.8-2 .7-2.3-.2-.4-.5-.5-1-.3l-2.2 1c-.7 0-1.4.2-2 .3 0 1.2 0 2 .2 2.3.2.4.4.6.7.6 1.2 0 2-.3 2.6-.6.6-.3 1-.6 1-1z" fill="#017EF9"/>
  </g>
</svg>
