
<svg width="135px" height="142px" viewBox="29 153 135 142" version="1.1" xmlns="http://www.w3.org/2000/svg" xmlns:xlink="http://www.w3.org/1999/xlink">
    <!-- Generator: Sketch 41.1 (35376) - http://www.bohemiancoding.com/sketch -->
    <desc>Created with Sketch.</desc>
    <defs></defs>
    <g id="联通Logo" stroke="none" stroke-width="1" fill="none" fill-rule="evenodd" transform="translate(29.000000, 154.000000)">
        <path d="M22.8098,118.6262 C22.6225991,118.6964 22.3827515,118.860199 22.09025,119.1176 C21.7977485,119.375001 21.4877016,119.679198 21.1601,120.0302 C20.8324984,120.381202 20.5107516,120.755598 20.19485,121.1534 C19.8789484,121.551202 19.6157011,121.925598 19.4051,122.2766 C20.3411047,123.891208 20.0018081,124.6634 18.3872,124.5932 C18.2701994,124.5932 18.0771513,124.6166 17.80805,124.6634 C17.5389487,124.7102 17.2172019,124.786249 16.8428,124.89155 C16.4683981,124.996851 16.076452,125.137249 15.66695,125.31275 C15.257448,125.488251 14.8655019,125.681299 14.4911,125.8919 C14.4911,126.734304 14.4852501,127.453847 14.47355,128.05055 C14.4618499,128.647253 14.4443001,129.220547 14.4209,129.77045 C14.3974999,130.320353 14.3741001,130.905347 14.3507,131.52545 C14.3272999,132.145553 14.3039001,132.888496 14.2805,133.7543 C14.2336998,134.830705 14.1225509,135.942194 13.94705,137.0888 C13.7715491,138.235406 13.5785011,139.300095 13.3679,140.2829 C13.3210998,140.493501 13.2450505,140.63975 13.13975,140.72165 C13.0344495,140.80355 12.9174506,140.8094 12.78875,140.7392 C12.6600494,140.669 12.5313506,140.493501 12.40265,140.2127 C12.2739494,139.931899 12.1628005,139.522403 12.0692,138.9842 C12.0223998,138.703399 11.9756002,138.358252 11.9288,137.94875 C11.8819998,137.539248 11.8410502,137.118052 11.80595,136.68515 C11.7708498,136.252248 11.7357502,135.836902 11.70065,135.4391 C11.6655498,135.041298 11.6363001,134.702001 11.6129,134.4212 C11.5660998,133.648996 11.5368501,132.982103 11.52515,132.4205 C11.5134499,131.858897 11.5076,131.338252 11.5076,130.85855 L11.5076,129.38435 C11.5076,128.881247 11.4959001,128.290403 11.4725,127.6118 C10.8874971,127.962802 10.3610023,128.214349 9.893,128.36645 C9.42499766,128.518551 8.96870222,128.5946 8.5241,128.5946 C8.19649836,128.5946 7.88060152,128.55365 7.5764,128.47175 C7.27219848,128.38985 6.89780222,128.231901 6.4532,127.9979 C6.57020058,128.770104 6.44150187,129.261499 6.0671,129.4721 C5.69269813,129.682701 5.16620339,129.518903 4.4876,128.9807 C3.2473938,128.021295 2.43425193,127.079455 2.04815,126.15515 C1.66204807,125.230845 1.58599883,124.242205 1.82,123.1892 C2.00720094,122.323396 2.09495006,121.615553 2.08325,121.06565 C2.07154994,120.515747 1.84340222,120.018502 1.3988,119.5739 C0.954197777,119.129298 0.743599883,118.801701 0.767,118.5911 C0.790400117,118.380499 1.00099801,118.368799 1.3988,118.556 C1.91360257,118.813401 2.37574795,119.088349 2.78525,119.38085 C3.19475205,119.673351 3.65689743,120.076997 4.1717,120.5918 C5.31830573,119.702596 6.47659415,118.877754 7.6466,118.11725 C8.81660585,117.356746 10.0801932,116.508505 11.4374,115.5725 C11.2267989,115.057697 11.0337509,114.542903 10.85825,114.0281 C10.6827491,113.513297 10.5482005,112.969253 10.4546,112.39595 C10.3609995,111.822647 10.3317498,111.220103 10.36685,110.5883 C10.4019502,109.956497 10.5130991,109.277904 10.7003,108.5525 C10.7705004,107.990897 10.9752483,107.610651 11.31455,107.41175 C11.6538517,107.212849 12.022398,107.1485 12.4202,107.2187 C12.8414021,107.2889 13.250898,107.470249 13.6487,107.76275 C14.046502,108.055251 14.3389991,108.400398 14.5262,108.7982 C14.7134009,109.196002 14.8713494,109.546998 15.00005,109.8512 C15.1287506,110.155402 15.2164998,110.477148 15.2633,110.81645 C15.3101002,111.155752 15.3276501,111.541848 15.31595,111.97475 C15.3042499,112.407652 15.2516005,112.951697 15.158,113.6069 C15.6728026,113.349499 16.2753465,113.144751 16.96565,112.99265 C17.6559535,112.840549 18.3345467,112.77035 19.00145,112.78205 C19.6683533,112.79375 20.2884471,112.881499 20.86175,113.0453 C21.4350529,113.209101 21.8854984,113.478198 22.2131,113.8526 C23.1491047,114.929005 23.6872993,115.911796 23.8277,116.801 C23.9681007,117.690204 23.6288041,118.298598 22.8098,118.6262 Z M11.8235,109.4651 C11.7766998,109.277899 11.653851,109.1726 11.45495,109.1492 C11.256049,109.1258 11.1215004,109.184299 11.0513,109.3247 C10.9108993,110.050104 10.9225992,110.787196 11.0864,111.536 C11.2502008,112.284804 11.4256991,112.975097 11.6129,113.6069 C11.6597002,113.372899 11.7064998,113.068702 11.7533,112.6943 C11.8001002,112.319898 11.8351999,111.933802 11.8586,111.536 C11.8820001,111.138198 11.8937,110.752102 11.8937,110.3777 C11.8937,110.003298 11.8703002,109.699101 11.8235,109.4651 Z M20.0018,116.9765 C20.5166026,116.297897 20.6687011,115.829901 20.4581,115.5725 C20.2474989,115.315099 19.7678037,115.1981 19.019,115.2215 C18.7381986,115.2215 18.398902,115.26245 18.0011,115.34435 C17.603298,115.42625 17.205502,115.531549 16.8077,115.66025 C16.409898,115.788951 16.0355018,115.941049 15.6845,116.11655 C15.3334982,116.292051 15.0761008,116.473399 14.9123,116.6606 C14.8186995,117.339203 14.7660501,117.994397 14.75435,118.6262 C14.7426499,119.258003 14.7134002,119.913197 14.6666,120.5918 C15.0410019,121.083202 15.427098,121.34645 15.8249,121.38155 C16.222702,121.41665 16.5736985,121.258702 16.8779,120.9077 C17.3459023,120.369497 17.8489973,119.766953 18.3872,119.10005 C18.9254027,118.433147 19.4635973,117.725304 20.0018,116.9765 Z M11.648,118.7666 C11.039597,119.328203 10.437053,119.854698 9.84035,120.3461 C9.24364702,120.837502 8.68205263,121.299648 8.15555,121.73255 C7.62904737,122.165452 7.16105205,122.563248 6.75155,122.92595 C6.34204795,123.288652 6.02030117,123.633798 5.7863,123.9614 L5.7863,124.96175 C5.7863,125.184051 5.78045006,125.400499 5.76875,125.6111 C5.75704994,125.821701 5.7512,125.997199 5.7512,126.1376 C6.05540152,126.254601 6.69889509,126.114202 7.6817,125.7164 C8.66450491,125.318598 9.97489181,124.487906 11.6129,123.2243 L11.6129,120.96035 C11.6129,120.527448 11.6187499,120.112102 11.63045,119.7143 C11.6421501,119.316498 11.648,119.000601 11.648,118.7666 Z M58.4714,131.9642 C58.1671985,133.90641 57.5295549,135.357195 56.55845,136.3166 C55.5873451,137.276005 54.1892091,137.7323 52.364,137.6855 C50.4451904,137.6387 48.8423064,137.410552 47.5553,137.00105 C46.2682936,136.591548 45.1568047,135.836905 44.2208,134.7371 C44.1271995,134.924301 44.0160506,135.093949 43.88735,135.24605 C43.7586494,135.398151 43.6358006,135.544399 43.5188,135.6848 C43.2847988,135.895401 43.0274014,136.094299 42.7466,136.2815 C42.4657986,136.468701 42.1499018,136.5389 41.7989,136.4921 C41.1670968,136.4219 40.4943536,136.193752 39.78065,135.80765 C39.0669464,135.421548 38.411753,134.906753 37.81505,134.26325 C37.218347,133.619747 36.721102,132.835855 36.3233,131.91155 C35.925498,130.987245 35.7266,129.940106 35.7266,128.7701 C35.7266,127.295893 35.8435988,125.827557 36.0776,124.36505 C36.3116012,122.902543 36.6625977,121.352308 37.1306,119.7143 C37.3880013,118.731495 37.6044491,117.865704 37.77995,117.1169 C37.9554509,116.368096 38.0782996,115.748002 38.1485,115.2566 C38.1719001,115.069399 38.2420994,114.96995 38.3591,114.95825 C38.4761006,114.94655 38.6281991,115.057699 38.8154,115.2917 C40.0322061,116.555306 40.6815496,117.742844 40.76345,118.85435 C40.8453504,119.965856 40.5587033,121.024695 39.9035,122.0309 C39.5524982,122.569103 39.2190516,123.183347 38.90315,123.87365 C38.5872484,124.563953 38.3591007,125.301046 38.2187,126.08495 C38.0782993,126.868854 38.0490496,127.681996 38.13095,128.5244 C38.2128504,129.366804 38.4760978,130.209196 38.9207,131.0516 C39.4121025,131.917404 39.8391482,132.578448 40.20185,133.03475 C40.5645518,133.491052 40.8979985,133.777699 41.2022,133.8947 C41.5064015,134.011701 41.7871987,134.000001 42.0446,133.8596 C42.3020013,133.719199 42.5593987,133.485202 42.8168,133.1576 C42.3487977,132.549197 41.9802513,132.046102 41.71115,131.6483 C41.4420487,131.250498 41.2197509,130.905351 41.04425,130.61285 C40.8687491,130.320349 40.7225006,130.051251 40.6055,129.80555 C40.4884994,129.559849 40.3598007,129.273202 40.2194,128.9456 C40.5938019,129.624203 41.0559473,130.267697 41.60585,130.8761 C42.1557527,131.484503 42.6412979,131.940798 43.0625,132.245 C43.0859001,131.940798 43.0917501,131.695101 43.08005,131.5079 C43.0683499,131.320699 43.0391002,131.004802 42.9923,130.5602 C42.9454998,130.138998 43.0449488,129.811401 43.29065,129.5774 C43.5363512,129.343399 43.8405482,129.162051 44.20325,129.03335 C44.5659518,128.904649 44.9344981,128.82275 45.3089,128.78765 C45.6833019,128.75255 45.9874988,128.7116 46.2215,128.6648 L46.2215,127.7522 C46.2215,127.541599 46.2156501,127.348551 46.20395,127.17305 C46.1922499,126.997549 46.1747001,126.8864 46.1513,126.8396 C45.6598975,126.9098 45.1802023,126.92735 44.7122,126.89225 C44.2441977,126.85715 43.8288518,126.781101 43.46615,126.6641 C43.1034482,126.547099 42.8109511,126.400851 42.58865,126.22535 C42.3663489,126.049849 42.2552,125.856801 42.2552,125.6462 C42.2552,125.435599 42.3780488,125.195751 42.62375,124.92665 C42.8694512,124.657549 43.1736482,124.400151 43.53635,124.15445 C43.8990518,123.908749 44.2968478,123.686451 44.72975,123.48755 C45.1626522,123.288649 45.5662981,123.1541 45.9407,123.0839 C46.0811007,122.264896 46.0986505,121.638952 45.99335,121.20605 C45.8880495,120.773148 45.7301011,120.5801 45.5195,120.6269 C44.8876968,120.743901 44.3495022,120.878449 43.9049,121.03055 C43.4602978,121.182651 43.0566518,121.410798 42.69395,121.715 C42.3312482,122.019202 41.9802517,122.416998 41.64095,122.9084 C41.3016483,123.399802 40.933102,124.031596 40.5353,124.8038 C40.3714992,124.429398 40.3539494,123.902903 40.48265,123.2243 C40.6113506,122.545697 40.8979978,121.796904 41.3426,120.9779 C42.2552046,119.222891 43.1677954,117.883255 44.0804,116.95895 C44.9930046,116.034645 46.1161933,115.5959 47.45,115.6427 C48.643406,115.6895 49.4565478,115.999547 49.88945,116.57285 C50.3223522,117.146153 50.3633018,117.807196 50.0123,118.556 C49.6846984,119.234603 49.4799504,119.878097 49.39805,120.4865 C49.3161496,121.094903 49.2635001,121.773496 49.2401,122.5223 C49.7081023,122.990302 50.0181492,123.475847 50.17025,123.97895 C50.3223508,124.482053 50.2580014,124.967598 49.9772,125.4356 C49.6729985,125.973803 49.3863513,126.488598 49.11725,126.98 C48.8481487,127.471402 48.5849013,127.962798 48.3275,128.4542 C48.6785018,128.4776 49.0411981,128.46005 49.4156,128.40155 C49.7900019,128.34305 50.0824989,128.231901 50.2931,128.0681 C50.5037011,126.944894 50.6323998,126.049853 50.6792,125.38295 C50.7260002,124.716047 50.8312992,124.183702 50.9951,123.7859 C51.0419002,123.645499 51.0653,123.452451 51.0653,123.20675 L51.0653,122.6627 C51.0653,122.288298 51.1822988,122.019201 51.4163,121.8554 C51.6503012,121.691599 51.9310984,121.6097 52.2587,121.6097 C52.5863016,121.6097 52.9255982,121.679899 53.2766,121.8203 C53.6276018,121.960701 53.9083989,122.147899 54.119,122.3819 C54.4700018,122.756302 54.7098494,123.159948 54.83855,123.59285 C54.9672506,124.025752 55.0082002,124.417698 54.9614,124.7687 C54.9145998,125.119702 54.791751,125.400499 54.59285,125.6111 C54.393949,125.821701 54.1541014,125.8919 53.8733,125.8217 C53.0542959,125.634499 52.340603,125.5292 51.7322,125.5058 C51.8258005,126.395004 51.9076996,127.126247 51.9779,127.69955 C52.0481004,128.272853 52.0890499,128.740848 52.10075,129.10355 C52.1124501,129.466252 52.1066001,129.764599 52.0832,129.9986 C52.0597999,130.232601 52.0013005,130.443199 51.9077,130.6304 C51.7438992,131.004802 51.4748019,131.285599 51.1004,131.4728 C50.7259981,131.660001 50.1995034,131.847199 49.5209,132.0344 C48.3040939,132.362002 47.3154538,132.5609 46.55495,132.6311 C45.7944462,132.7013 45.1568026,132.677901 44.642,132.5609 C44.5951998,132.701301 44.5718,132.923598 44.5718,133.2278 C44.8760015,133.391601 45.2503978,133.555399 45.695,133.7192 C46.1396022,133.883001 46.666097,134.023399 47.2745,134.1404 C47.882903,134.257401 48.584896,134.33345 49.3805,134.36855 C50.176104,134.40365 51.0886949,134.362701 52.1183,134.2457 C53.1947054,134.1521 53.931798,133.801103 54.3296,133.1927 C54.727402,132.584297 54.9964993,131.660006 55.1369,130.4198 C55.2539006,129.156194 55.3240999,127.892606 55.3475,126.629 C55.3709001,125.365394 55.3241006,123.949708 55.2071,122.3819 C55.0900994,120.767292 54.9614007,119.439355 54.821,118.39805 C54.6805993,117.356745 54.5226509,116.490953 54.34715,115.80065 C54.1716491,115.110347 53.9552013,114.537052 53.6978,114.08075 C53.4403987,113.624448 53.1245019,113.174002 52.7501,112.7294 C52.2352974,112.144397 51.6444533,111.88115 50.97755,111.93965 C50.3106467,111.99815 49.6028037,112.354997 48.854,113.0102 C48.4795981,113.337802 48.1344516,113.595199 47.81855,113.7824 C47.5026484,113.969601 47.1516519,114.10415 46.76555,114.18605 C46.3794481,114.26795 45.9231526,114.3206 45.39665,114.344 C44.8701474,114.3674 44.2208039,114.3791 43.4486,114.3791 C43.1677986,114.3791 42.9455008,114.39665 42.7817,114.43175 C42.6178992,114.46685 42.4892005,114.5312 42.3956,114.6248 C42.3019995,114.7184 42.2376502,114.847099 42.20255,115.0109 C42.1674498,115.174701 42.1265002,115.385299 42.0797,115.6427 C42.0328998,115.525699 42.0036501,115.391151 41.99195,115.23905 C41.9802499,115.086949 41.9627001,114.952401 41.9393,114.8354 C41.9158999,114.601399 41.9100499,114.367401 41.92175,114.1334 C41.9334501,113.899399 41.9626998,113.712201 42.0095,113.5718 C42.1499007,113.220798 42.3780484,112.881502 42.69395,112.5539 C43.0098516,112.226298 43.3900978,111.916251 43.8347,111.62375 C44.2793022,111.331249 44.7531475,111.050451 45.25625,110.78135 C45.7593525,110.512249 46.2799973,110.260701 46.8182,110.0267 C47.7776048,109.628898 48.7077455,109.4534 49.60865,109.5002 C50.5095545,109.547 51.5332943,109.804398 52.6799,110.2724 C54.271108,110.880803 55.4410963,111.769994 56.1899,112.94 C56.9387037,114.110006 57.4183989,115.432093 57.629,116.9063 C57.9566016,119.222912 58.2022992,121.182642 58.3661,122.78555 C58.5299008,124.388458 58.6410497,125.757344 58.69955,126.89225 C58.7580503,128.027156 58.7580503,128.986546 58.69955,129.77045 C58.6410497,130.554354 58.5650005,131.285597 58.4714,131.9642 Z M52.1885,123.9965 C51.9778989,123.645498 51.7556012,123.48755 51.5216,123.52265 C51.2875988,123.55775 51.1472002,123.973096 51.1004,124.7687 L50.96,126.5939 C50.9131998,127.202303 50.8313006,127.775597 50.7143,128.3138 C50.8079005,128.711602 50.9073495,128.89295 51.01265,128.85785 C51.1179505,128.82275 51.1939998,128.699901 51.2408,128.4893 C51.3578006,128.044698 51.4279999,127.471404 51.4514,126.7694 C51.4748001,126.067396 51.4981999,125.342004 51.5216,124.5932 C51.5684002,124.6868 51.6034999,124.7804 51.6269,124.874 C51.6503001,124.9676 51.6853998,125.0495 51.7322,125.1197 C51.9428011,125.0729 52.1065994,124.944201 52.2236,124.7336 C52.3406006,124.522999 52.3289007,124.277301 52.1885,123.9965 Z M96.6602,126.0323 C96.7070002,126.500302 96.6602007,126.810349 96.5198,126.96245 C96.3793993,127.114551 95.9465036,127.1438 95.2211,127.0502 C94.7998979,127.0034 94.3026529,127.0151 93.72935,127.0853 C93.1560471,127.1555 92.5593531,127.278349 91.93925,127.45385 C91.3191469,127.629351 90.710753,127.851649 90.11405,128.12075 C89.517347,128.389851 88.9967022,128.688198 88.5521,129.0158 C88.4350994,130.068805 88.2479013,131.051595 87.9905,131.9642 C87.7330987,132.876805 87.405502,133.666547 87.0077,134.33345 C86.609898,135.000353 86.1419027,135.532698 85.6037,135.9305 C85.0654973,136.328302 84.4571034,136.5506 83.7785,136.5974 C82.9594959,136.6442 82.4447011,136.568151 82.2341,136.36925 C82.0234989,136.170349 81.9883993,135.953901 82.1288,135.7199 C82.4096014,135.111497 82.6728488,134.690301 82.91855,134.4563 C83.1642512,134.222299 83.4391985,134.0819 83.7434,134.0351 C84.0242014,134.0351 84.2932987,133.900551 84.5507,133.63145 C84.8081013,133.362349 85.0420989,133.034752 85.2527,132.64865 C85.4633011,132.262548 85.6212495,131.870602 85.72655,131.4728 C85.8318505,131.074998 85.8728001,130.747401 85.8494,130.49 C85.4281979,130.887802 85.0713515,131.186149 84.77885,131.38505 C84.4863485,131.583951 84.2055513,131.7068 83.93645,131.7536 C83.6673487,131.8004 83.3748516,131.777 83.05895,131.6834 C82.7430484,131.5898 82.3511023,131.426001 81.8831,131.192 C81.6256987,131.051599 81.4209508,130.887801 81.26885,130.7006 C81.1167492,130.513399 81.0231502,130.320351 80.98805,130.12145 C80.9529498,129.922549 80.9821995,129.729501 81.0758,129.5423 C81.1694005,129.355099 81.3448987,129.203001 81.6023,129.086 C82.1639028,128.805199 82.6845476,128.524401 83.16425,128.2436 C83.6439524,127.962799 84.0768481,127.635202 84.46295,127.2608 C84.8490519,126.886398 85.1941985,126.459352 85.4984,125.97965 C85.8026015,125.499948 86.0482991,124.909104 86.2355,124.2071 C85.7206974,124.2773 85.2819518,124.2656 84.91925,124.172 C84.5565482,124.0784 84.2465013,123.926301 83.9891,123.7157 C83.7316987,123.505099 83.5094009,123.247702 83.3222,122.9435 C83.1349991,122.639298 82.9712007,122.288302 82.8308,121.8905 C82.7371995,121.633099 82.7079498,121.393251 82.74305,121.17095 C82.7781502,120.948649 82.8483495,120.761451 82.95365,120.60935 C83.0589505,120.457249 83.1817993,120.3461 83.3222,120.2759 C83.4626007,120.2057 83.5912994,120.1823 83.7083,120.2057 C84.1763023,120.2993 84.6852473,120.199851 85.23515,119.90735 C85.7850527,119.614849 86.3290973,119.217053 86.8673,118.71395 C87.4055027,118.210847 87.9261475,117.643403 88.42925,117.0116 C88.9323525,116.379797 89.3710981,115.753853 89.7455,115.13375 C90.1199019,114.513647 90.406549,113.946203 90.60545,113.4314 C90.804351,112.916597 90.8804002,112.530501 90.8336,112.2731 C90.6229989,111.243495 90.3714515,110.635101 90.07895,110.4479 C89.7864485,110.260699 89.5700007,110.319198 89.4296,110.6234 C89.3593996,110.810601 89.2775005,111.009499 89.1839,111.2201 C89.0902995,111.430701 88.9733007,111.717348 88.8329,112.08005 C88.6924993,112.442752 88.5170011,112.910747 88.3064,113.48405 C88.0957989,114.057353 87.8384015,114.811995 87.5342,115.748 C87.2299985,116.520204 86.9901509,117.099348 86.81465,117.48545 C86.6391491,117.871552 86.4227013,118.204999 86.1653,118.4858 C85.7206978,118.953802 85.2644023,118.953802 84.7964,118.4858 C84.2815974,117.970997 83.8838014,117.309954 83.603,116.50265 C83.3221986,115.695346 83.2168996,114.835405 83.2871,113.9228 C83.3573004,113.337797 83.4567494,112.9985 83.58545,112.9049 C83.7141506,112.8113 83.8486993,112.858099 83.9891,113.0453 C84.2699014,113.372902 84.5038991,113.56595 84.6911,113.62445 C84.8783009,113.68295 85.0537992,113.630301 85.2176,113.4665 C86.2004049,112.694296 87.0135468,111.986453 87.65705,111.34295 C88.3005532,110.699447 88.8328979,110.026704 89.2541,109.3247 C89.3711006,109.160899 89.5699986,109.079 89.8508,109.079 C90.1316014,109.079 90.3889988,109.184299 90.623,109.3949 C90.9272015,109.652301 91.3366974,109.933098 91.8515,110.2373 C92.3663026,110.541502 92.8459978,110.857398 93.2906,111.185 C93.6416018,111.442401 93.8931492,111.729048 94.04525,112.04495 C94.1973508,112.360852 94.2792499,112.682598 94.29095,113.0102 C94.3026501,113.337802 94.2558505,113.659548 94.15055,113.97545 C94.0452495,114.291352 93.8990009,114.554599 93.7118,114.7652 C93.2671978,115.326803 92.846002,115.853298 92.4482,116.3447 C92.050398,116.836102 91.7111014,117.385997 91.4303,117.9944 C91.8983023,118.322002 92.2609987,118.649598 92.5184,118.9772 C92.7758013,119.304802 92.9045,119.702598 92.9045,120.1706 C92.9045,120.334401 92.8635504,120.498199 92.78165,120.662 C92.6997496,120.825801 92.5476511,121.042249 92.32535,121.31135 C92.1030489,121.580451 91.7813021,121.908048 91.3601,122.29415 C90.9388979,122.680252 90.3890034,123.189197 89.7104,123.821 C89.7104,124.172002 89.6987001,124.499598 89.6753,124.8038 C89.6518999,125.108002 89.6168002,125.400499 89.57,125.6813 C90.2018032,125.494099 90.816047,125.318601 91.41275,125.1548 C92.009453,124.990999 92.611997,124.780401 93.2204,124.523 C93.618202,124.359199 94.015998,124.29485 94.4138,124.32995 C94.811602,124.36505 95.1742984,124.470349 95.5019,124.64585 C95.8295016,124.821351 96.0985989,125.031949 96.3092,125.27765 C96.5198011,125.523351 96.6367999,125.774899 96.6602,126.0323 Z M81.7778,111.0446 C81.7778,111.723203 81.6608012,112.161949 81.4268,112.36085 C81.1927988,112.559751 80.8067027,112.6358 80.2685,112.589 C79.7068972,112.5422 79.0517037,112.916596 78.3029,113.7122 C78.8177026,114.063202 79.2388984,114.396648 79.5665,114.71255 C79.8941016,115.028452 80.1456491,115.344348 80.32115,115.66025 C80.4966509,115.976152 80.6136497,116.309598 80.67215,116.6606 C80.7306503,117.011602 80.7482001,117.409398 80.7248,117.854 C80.7013999,118.485803 80.6780001,119.345745 80.6546,120.43385 C80.6311999,121.521955 80.6195,122.732893 80.6195,124.0667 C80.6195,125.400507 80.6253499,126.816193 80.63705,128.3138 C80.6487501,129.811407 80.6779998,131.308993 80.7248,132.8066 C80.7482001,133.625604 80.7131005,134.415346 80.6195,135.17585 C80.5258995,135.936354 80.3855009,136.492098 80.1983,136.8431 C79.8940985,137.521703 79.6016014,137.533403 79.3208,136.8782 C79.0399986,136.339997 78.8294007,135.836902 78.689,135.3689 C78.5485993,134.900898 78.4550002,134.397803 78.4082,133.8596 C78.3613998,133.321397 78.3496999,132.695454 78.3731,131.98175 C78.3965001,131.268046 78.4432996,130.384705 78.5135,129.3317 C77.6476957,129.940103 76.9281529,130.443198 76.35485,130.841 C75.7815471,131.238802 75.3135518,131.572249 74.95085,131.84135 C74.5881482,132.110451 74.2956511,132.338599 74.07335,132.5258 C73.8510489,132.713001 73.6697007,132.876799 73.5293,133.0172 C73.0846978,133.461802 72.6342523,133.748449 72.17795,133.87715 C71.7216477,134.005851 71.3004519,134.0234 70.91435,133.9298 C70.5282481,133.8362 70.2006513,133.649001 69.93155,133.3682 C69.6624487,133.087399 69.4928004,132.771502 69.4226,132.4205 C69.3757998,132.186499 69.3699498,131.934951 69.40505,131.66585 C69.4401502,131.396749 69.557149,131.098402 69.75605,130.7708 C69.954951,130.443198 70.2474481,130.080502 70.63355,129.6827 C71.0196519,129.284898 71.5285968,128.852002 72.1604,128.384 C71.9497989,127.330995 71.8269502,126.283855 71.79185,125.24255 C71.7567498,124.201245 71.8093993,123.013707 71.9498,121.6799 C71.551998,121.539499 71.2595009,121.369851 71.0723,121.17095 C70.8850991,120.972049 70.8031999,120.779001 70.8266,120.5918 C70.8500001,120.404599 70.9728489,120.234951 71.19515,120.08285 C71.4174511,119.930749 71.7391979,119.8196 72.1604,119.7494 C72.3242008,119.164397 72.4762993,118.649602 72.6167,118.205 C72.7571007,117.760398 72.9325989,117.280703 73.1432,116.7659 C72.534797,116.625499 72.0083022,116.485101 71.5637,116.3447 C71.1190978,116.204299 70.7330016,116.052201 70.4054,115.8884 C70.0777984,115.724599 69.7853013,115.525701 69.5279,115.2917 C69.2704987,115.057699 69.0248012,114.765202 68.7908,114.4142 C68.4163981,113.875997 68.533397,113.5952 69.1418,113.5718 C69.8906037,113.525 70.5165475,113.4665 71.01965,113.3963 C71.5227525,113.3261 71.9497982,113.2442 72.3008,113.1506 C72.6518018,113.057 72.9559987,112.934151 73.2134,112.78205 C73.4708013,112.629949 73.7281987,112.448601 73.9856,112.238 C74.4536023,111.840198 74.9391475,111.471652 75.44225,111.13235 C75.9453525,110.793048 76.501097,110.447902 77.1095,110.0969 C77.6711028,109.792698 78.2326972,109.61135 78.7943,109.55285 C79.3559028,109.49435 79.8531478,109.523599 80.28605,109.6406 C80.7189522,109.757601 81.0757986,109.944799 81.3566,110.2022 C81.6374014,110.459601 81.7778,110.740398 81.7778,111.0446 Z M97.0463,135.5795 C97.0463,136.421904 96.9176013,136.930849 96.6602,137.10635 C96.4027987,137.281851 96.0986018,137.264301 95.7476,137.0537 C95.3965982,136.819699 95.016352,136.538902 94.60685,136.2113 C94.197348,135.883698 93.787852,135.538552 93.37835,135.17585 C92.968848,134.813148 92.5827518,134.456302 92.22005,134.1053 C91.8573482,133.754298 91.5473013,133.415002 91.2899,133.0874 C90.9856985,132.689598 90.7283011,132.397101 90.5177,132.2099 C90.3070989,132.022699 89.9678023,131.858901 89.4998,131.7185 C88.7509963,131.390898 88.7626961,131.168601 89.5349,131.0516 C90.7049058,130.934599 91.7520454,130.969699 92.67635,131.1569 C93.6006546,131.344101 94.3903967,131.642448 95.0456,132.05195 C95.7008033,132.461452 96.1980483,132.970397 96.53735,133.5788 C96.8766517,134.187203 97.0463,134.854096 97.0463,135.5795 Z M78.5837,118.8017 C78.5837,118.263497 78.5720001,117.813052 78.5486,117.45035 C78.5251999,117.087648 78.4608505,116.765901 78.35555,116.4851 C78.2502495,116.204299 78.0923011,115.946901 77.8817,115.7129 C77.6710989,115.478899 77.366902,115.209802 76.9691,114.9056 C76.2904966,115.514003 75.7640019,116.011248 75.3896,116.39735 C75.0151981,116.783452 74.7578007,117.105199 74.6174,117.3626 C74.4769993,117.620001 74.4243498,117.842299 74.45945,118.0295 C74.4945502,118.216701 74.6056991,118.403899 74.7929,118.5911 C75.5417037,118.216698 76.2378468,118.0295 76.88135,118.0295 C77.5248532,118.0295 78.0922975,118.286897 78.5837,118.8017 Z M78.5837,123.0488 C78.6305002,122.533997 78.6597499,122.001653 78.67145,121.45175 C78.6831501,120.901847 78.6539004,120.521601 78.5837,120.311 C77.6710954,120.638602 76.9515526,120.919399 76.42505,121.1534 C75.8985474,121.387401 75.5007513,121.621399 75.23165,121.8554 C74.9625487,122.089401 74.7870504,122.340949 74.70515,122.61005 C74.6232496,122.879151 74.5823,123.224298 74.5823,123.6455 C75.0971026,123.481699 75.5358482,123.341301 75.89855,123.2243 C76.2612518,123.107299 76.5888485,123.0254 76.88135,122.9786 C77.1738515,122.9318 77.4487987,122.91425 77.7062,122.92595 C77.9636013,122.93765 78.2560984,122.9786 78.5837,123.0488 Z M78.5486,125.3303 C77.8231964,125.845103 77.0978036,126.324798 76.3724,126.7694 C75.6469964,127.214002 74.9099037,127.646898 74.1611,128.0681 C74.1376999,128.278701 74.1201501,128.495149 74.10845,128.71745 C74.0967499,128.939751 74.1025999,129.284898 74.126,129.7529 C74.4302015,129.518899 74.7343985,129.314151 75.0386,129.13865 C75.3428015,128.963149 75.6586984,128.781801 75.9863,128.5946 C76.3139016,128.407399 76.682448,128.214351 77.09195,128.01545 C77.501452,127.816549 77.9752973,127.576701 78.5135,127.2959 C78.5837004,126.851298 78.6071001,126.482751 78.5837,126.19025 C78.5602999,125.897749 78.5486,125.611101 78.5486,125.3303 Z M73.3538,130.1039 C73.1665991,129.869899 73.0262005,129.676851 72.9326,129.52475 C72.8389995,129.372649 72.7454005,129.226401 72.6518,129.086 C72.1135973,129.343401 71.6865516,129.600799 71.37065,129.8582 C71.0547484,130.115601 70.8324506,130.337899 70.70375,130.5251 C70.5750494,130.712301 70.5340998,130.8527 70.5809,130.9463 C70.6277002,131.0399 70.7563989,131.0633 70.967,131.0165 C71.4818026,130.876099 71.9205482,130.741551 72.28325,130.61285 C72.6459518,130.484149 73.0027982,130.314501 73.3538,130.1039 Z M133.0589,136.9835 C132.9653,137.0303 132.760552,137.112199 132.44465,137.2292 C132.128748,137.346201 131.748502,137.480749 131.3039,137.63285 C130.859298,137.784951 130.373753,137.937049 129.84725,138.08915 C129.320747,138.241251 128.800103,138.375799 128.2853,138.4928 C127.981098,138.563 127.577453,138.5864 127.07435,138.563 C126.571247,138.5396 125.828305,138.352402 124.8455,138.0014 C124.260497,137.790799 123.511705,137.527552 122.5991,137.21165 C121.686495,136.895748 120.756355,136.591551 119.80865,136.29905 C118.860945,136.006549 117.960054,135.737451 117.10595,135.49175 C116.251846,135.246049 115.590802,135.0881 115.1228,135.0179 C114.163395,134.854099 113.250804,134.75465 112.385,134.71955 C111.519196,134.68445 110.735304,134.702 110.0333,134.7722 C109.331296,134.8424 108.746302,134.935999 108.2783,135.053 C107.810298,135.170001 107.506101,135.298699 107.3657,135.4391 C107.108299,135.649701 106.880151,135.684801 106.68125,135.5444 C106.482349,135.403999 106.184002,135.006203 105.7862,134.351 C105.411798,133.765997 105.26555,133.303852 105.34745,132.96455 C105.42935,132.625248 105.727697,132.4907 106.2425,132.5609 C106.663702,132.6311 107.043948,132.607701 107.38325,132.4907 C107.722552,132.373699 107.997499,132.209901 108.2081,131.9993 C108.418701,131.788699 108.5474,131.578101 108.5942,131.3675 C108.641,131.156899 108.582501,131.0048 108.4187,130.9112 C107.950698,130.677199 107.535352,130.390552 107.17265,130.05125 C106.809948,129.711948 106.529151,129.331702 106.33025,128.9105 C106.131349,128.489298 106.02605,128.033002 106.01435,127.5416 C106.00265,127.050198 106.137199,126.523703 106.418,125.9621 C106.581801,125.587698 106.62275,125.347851 106.54085,125.24255 C106.45895,125.137249 106.148903,125.1314 105.6107,125.225 C105.259698,125.2952 104.937951,125.195751 104.64545,124.92665 C104.352949,124.657549 104.042902,124.113504 103.7153,123.2945 C103.481299,122.686097 103.469599,122.077703 103.6802,121.4693 C103.890801,120.860897 104.288597,120.311002 104.8736,119.8196 C105.294802,119.445198 105.622399,119.141001 105.8564,118.907 C106.090401,118.672999 106.260049,118.479951 106.36535,118.32785 C106.470651,118.175749 106.51745,118.0529 106.50575,117.9593 C106.49405,117.8657 106.4531,117.7838 106.3829,117.7136 C106.195699,117.549799 105.979251,117.333351 105.73355,117.06425 C105.487849,116.795149 105.294801,116.555301 105.1544,116.3447 C104.943799,116.040498 104.86775,115.771401 104.92625,115.5374 C104.98475,115.303399 105.189498,115.1864 105.5405,115.1864 C106.336104,115.163 107.008847,115.1864 107.55875,115.2566 C108.108653,115.3268 108.582498,115.461349 108.9803,115.66025 C109.378102,115.859151 109.705699,116.122398 109.9631,116.45 C110.220501,116.777602 110.442799,117.175398 110.63,117.6434 C110.840601,118.158203 110.864001,118.515049 110.7002,118.71395 C110.536399,118.912851 110.267302,119.0474 109.8929,119.1176 C109.682299,119.141 109.354702,119.246299 108.9101,119.4335 C108.465498,119.620701 107.991653,119.837149 107.48855,120.08285 C106.985447,120.328551 106.505752,120.574249 106.04945,120.81995 C105.593148,121.065651 105.248001,121.258699 105.014,121.3991 C104.616198,121.679901 104.44655,121.902199 104.50505,122.066 C104.56355,122.229801 104.791698,122.2883 105.1895,122.2415 C105.985104,122.1479 106.704647,122.241499 107.34815,122.5223 C107.991653,122.803101 108.500598,123.177498 108.875,123.6455 C109.249402,124.113502 109.46585,124.616597 109.52435,125.1548 C109.58285,125.693003 109.436602,126.160998 109.0856,126.5588 C108.570797,127.120403 108.3017,127.506499 108.2783,127.7171 C108.2549,127.927701 108.395298,128.138299 108.6995,128.3489 C109.050502,128.629701 109.366399,128.957298 109.6472,129.3317 C109.928001,129.706102 110.156149,130.086348 110.33165,130.47245 C110.507151,130.858552 110.63,131.232948 110.7002,131.59565 C110.7704,131.958352 110.7704,132.256699 110.7002,132.4907 C111.495804,132.5609 112.162697,132.6311 112.7009,132.7013 C113.239103,132.7715 113.835797,132.8417 114.491,132.9119 C114.210199,132.467298 113.987901,132.081202 113.8241,131.7536 C113.660299,131.425998 113.54915,131.104252 113.49065,130.78835 C113.43215,130.472448 113.4146,130.115602 113.438,129.7178 C113.4614,129.319998 113.5199,128.828603 113.6135,128.2436 C113.847501,126.839593 113.9294,125.774904 113.8592,125.0495 C113.789,124.324096 113.660301,123.844401 113.4731,123.6104 C113.332699,123.469999 113.209851,123.282801 113.10455,123.0488 C112.999249,122.814799 112.9115,122.580801 112.8413,122.3468 C112.7711,122.112799 112.7126,121.890501 112.6658,121.6799 C112.619,121.469299 112.5956,121.305501 112.5956,121.1885 C112.5956,120.650297 112.671649,120.3578 112.82375,120.311 C112.975851,120.2642 113.122099,120.439698 113.2625,120.8375 C113.3327,121.118301 113.449699,121.387399 113.6135,121.6448 C113.777301,121.902201 114.081498,122.253198 114.5261,122.6978 C114.806901,122.019197 115.081849,121.463452 115.35095,121.03055 C115.620051,120.597648 116.047097,120.123803 116.6321,119.609 C116.093897,119.796201 115.678551,119.91905 115.38605,119.97755 C115.093549,120.03605 114.888801,120.0536 114.7718,120.0302 C114.654799,120.0068 114.6197,119.95415 114.6665,119.87225 C114.7133,119.79035 114.830299,119.7143 115.0175,119.6441 C115.438702,119.456899 115.930097,119.187802 116.4917,118.8368 C117.053303,118.485798 117.743596,117.971003 118.5626,117.2924 C118.843401,117.058399 118.9955,116.888751 119.0189,116.78345 C119.0423,116.678149 118.972101,116.5904 118.8083,116.5202 C118.527499,116.4266 118.164802,116.221852 117.7202,115.90595 C117.275598,115.590048 116.924601,115.268302 116.6672,114.9407 C115.941796,115.619303 115.432851,115.9937 115.14035,116.0639 C114.847849,116.1341 114.608001,116.028801 114.4208,115.748 C113.976198,115.209797 113.625201,114.542904 113.3678,113.7473 C113.110399,112.951696 113.0051,112.097605 113.0519,111.185 C113.0753,110.810598 113.186449,110.59415 113.38535,110.53565 C113.584251,110.47715 113.835798,110.681898 114.14,111.1499 C114.350601,111.430701 114.526099,111.5828 114.6665,111.6062 C114.806901,111.6296 115.075998,111.536001 115.4738,111.3254 C115.895002,111.114799 116.327898,110.886651 116.7725,110.64095 C117.217102,110.395249 117.644148,110.149551 118.05365,109.90385 C118.463152,109.658149 118.843398,109.424151 119.1944,109.20185 C119.545402,108.979549 119.837899,108.774801 120.0719,108.5876 C120.750503,108.049397 121.510996,107.838799 122.3534,107.9558 C123.195804,108.072801 123.991396,108.540796 124.7402,109.3598 C125.067802,109.710802 125.2784,110.032549 125.372,110.32505 C125.4656,110.617551 125.49485,110.874949 125.45975,111.09725 C125.42465,111.319551 125.342751,111.495049 125.21405,111.62375 C125.085349,111.752451 124.950801,111.8285 124.8104,111.8519 C124.623199,111.8753 124.447701,111.9338 124.2839,112.0274 C124.120099,112.121 123.915351,112.296499 123.66965,112.5539 C123.423949,112.811301 123.131452,113.168148 122.79215,113.62445 C122.452848,114.080752 122.025803,114.671596 121.511,115.397 C121.768401,115.654401 121.9322,115.876699 122.0024,116.0639 C122.0726,116.251101 122.096,116.449999 122.0726,116.6606 C122.657603,116.543599 123.219197,116.555299 123.7574,116.6957 C124.295603,116.836101 124.763598,117.070098 125.1614,117.3977 C125.559202,117.725302 125.875099,118.111398 126.1091,118.556 C126.343101,119.000602 126.4484,119.456898 126.425,119.9249 C126.4016,120.392902 126.38405,120.890147 126.37235,121.41665 C126.36065,121.943153 126.37235,122.598346 126.40745,123.38225 C126.44255,124.166154 126.4952,125.148944 126.5654,126.33065 C126.6356,127.512356 126.729199,128.980691 126.8462,130.7357 C126.893,131.835505 126.88715,132.677897 126.82865,133.2629 C126.77015,133.847903 126.635601,134.444597 126.425,135.053 C127.618406,135.1466 128.741595,135.19925 129.7946,135.21095 C130.847605,135.22265 131.888895,135.1934 132.9185,135.1232 C133.199301,135.1232 133.444999,135.17 133.6556,135.2636 C133.866201,135.3572 133.9949,135.491749 134.0417,135.66725 C134.0885,135.842751 134.041701,136.041649 133.9013,136.26395 C133.760899,136.486251 133.480102,136.726099 133.0589,136.9835 Z M124.7753,134.9477 C124.424298,134.643498 124.079152,134.315902 123.73985,133.9649 C123.400548,133.613898 123.090501,133.280452 122.8097,132.96455 C122.528899,132.648648 122.283201,132.362001 122.0726,132.1046 C121.861999,131.847199 121.7216,131.648301 121.6514,131.5079 C121.370599,130.993097 121.27115,130.647951 121.35305,130.47245 C121.43495,130.296949 121.616299,130.291099 121.8971,130.4549 C122.458703,130.759102 122.903298,130.987249 123.2309,131.13935 C123.558502,131.291451 123.798349,131.3558 123.95045,131.3324 C124.102551,131.309 124.202,131.215401 124.2488,131.0516 C124.2956,130.887799 124.319,130.642102 124.319,130.3145 C124.2956,129.916698 124.27805,129.507202 124.26635,129.086 C124.25465,128.664798 124.2371,128.255302 124.2137,127.8575 C124.1201,127.9043 124.0382,127.9277 123.968,127.9277 C123.546798,127.9979 123.067103,128.085649 122.5289,128.19095 C121.990697,128.296251 121.487602,128.419099 121.0196,128.5595 C120.926,129.823106 120.826551,130.911195 120.72125,131.8238 C120.615949,132.736405 120.504801,133.485197 120.3878,134.0702 C121.557806,134.351001 122.458697,134.549899 123.0905,134.6669 C123.722303,134.783901 124.283898,134.8775 124.7753,134.9477 Z M119.5454,133.8596 C119.147598,133.461798 118.890201,132.935303 118.7732,132.2801 C118.656199,131.624897 118.656199,130.642107 118.7732,129.3317 C117.790395,129.776302 116.983103,129.99275 116.3513,129.98105 C115.719497,129.96935 115.345101,129.729502 115.2281,129.2615 C115.1813,129.869903 115.16375,130.489997 115.17545,131.1218 C115.18715,131.753603 115.2164,132.385397 115.2632,133.0172 C115.707802,133.0874 116.310346,133.198549 117.07085,133.35065 C117.831354,133.502751 118.656196,133.672399 119.5454,133.8596 Z M124.141054,126.799178 C124.095271,126.041664 124.055137,125.318045 124.02065,124.6283 C123.98555,123.926296 123.9446,123.271103 123.8978,122.6627 C123.757399,122.803101 123.488302,122.961049 123.0905,123.13655 C122.692698,123.312051 122.154503,123.540199 121.4759,123.821 C121.4291,123.8444 121.38815,123.8795 121.35305,123.9263 C121.31795,123.9731 121.29455,124.060849 121.28285,124.18955 C121.27115,124.318251 121.25945,124.499599 121.24775,124.7336 C121.23605,124.967601 121.2302,125.271798 121.2302,125.6462 C121.815203,125.529199 122.382647,125.552599 122.93255,125.7164 C123.480714,125.879683 123.883544,126.240605 124.141054,126.799178 L124.141054,126.799178 Z M123.5468,119.7494 C123.359599,119.211197 123.125601,118.90115 122.8448,118.81925 C122.563999,118.73735 122.002404,118.918698 121.16,119.3633 C121.2068,119.620701 121.23605,119.913198 121.24775,120.2408 C121.25945,120.568402 121.2653,120.872599 121.2653,121.1534 C121.780103,121.2002 122.271498,121.2704 122.7395,121.364 C123.207502,121.4576 123.570199,121.574599 123.8276,121.715 C123.7808,121.246998 123.734,120.843352 123.6872,120.50405 C123.6404,120.164748 123.5936,119.913201 123.5468,119.7494 Z M118.5977,120.4865 C118.199898,120.650301 117.784552,120.814099 117.35165,120.9779 C116.918748,121.141701 116.468302,121.317199 116.0003,121.5044 C115.625898,121.668201 115.368501,121.890499 115.2281,122.1713 C115.087699,122.452101 115.0175,122.884997 115.0175,123.47 C115.181301,123.3764 115.432848,123.241851 115.77215,123.06635 C116.111452,122.890849 116.474148,122.709501 116.86025,122.5223 C117.246352,122.335099 117.614898,122.165451 117.9659,122.01335 C118.316902,121.861249 118.597699,121.7501 118.8083,121.6799 L118.5977,120.4865 Z M115.6493,127.2959 C116.398104,126.921498 117.047447,126.617301 117.59735,126.3833 C118.147253,126.149299 118.469,125.856802 118.5626,125.5058 C117.954197,125.459 117.357503,125.347851 116.7725,125.17235 C116.187497,124.996849 115.731202,124.780401 115.4036,124.523 C115.4738,124.803801 115.51475,125.160648 115.52645,125.59355 C115.53815,126.026452 115.5089,126.453498 115.4387,126.8747 C115.4153,126.991701 115.39775,127.120399 115.38605,127.2608 C115.37435,127.401201 115.3568,127.541599 115.3334,127.682 C115.4036,127.494799 115.508899,127.3661 115.6493,127.2959 Z M121.3355,110.483 C121.475901,110.085198 121.51685,109.8863 121.45835,109.8863 C121.39985,109.8863 121.241901,110.085198 120.9845,110.483 C120.680298,110.974402 120.235703,111.553547 119.6507,112.22045 C119.065697,112.887353 118.375404,113.548397 117.5798,114.2036 C117.954202,114.2972 118.287649,114.32645 118.58015,114.29135 C118.872651,114.25625 119.159299,114.110001 119.4401,113.8526 C119.720901,113.595199 120.013398,113.197403 120.3176,112.6592 C120.621802,112.120997 120.961098,111.395605 121.3355,110.483 Z" id="中国联通" fill="#000000"></path>
        <path d="M98.4483476,23.6841059 C101.668252,17.7381378 101.082781,11.5962172 96.5936857,5.16164985 C89.8609585,-0.297550239 83.1282314,-1.36961187 76.3955043,1.84730556 L68.3939523,9.64658142 L60.0019645,2.13958612 C54.6348463,-1.27255129 48.3900724,-0.589830793 41.2669094,4.08958821 C35.3143208,10.3289356 34.338781,16.7631368 38.339557,23.4899847 L46.3407424,18.2252721 C45.46272,15.8851963 45.7556385,13.8381336 47.2187648,11.8884978 C48.585107,9.93886197 51.2199074,9.54842203 55.1227995,10.8164362 L60.7824696,15.9833557 L55.0256488,22.2219706 L61.8562598,29.2414654 L68.3939523,22.9046911 L74.6387263,29.1440385 L82.4452436,21.7344701 L76.1029524,16.1774769 L80.6888322,10.8164362 C84.2991724,8.86680034 86.9339728,8.86680034 88.5928669,10.8164362 C90.7393475,12.5712183 91.2273007,15.0083547 89.8609585,18.0300521 L68.1014004,40.9400129 L46.3407424,18.2252721 L38.339557,23.4899847 L61.3675734,48.0565683 L38.1441558,72.818738 C34.4359317,78.5702187 35.1192861,85.1022129 40.2910031,92.413622 C47.3162821,97.8739209 53.7568239,98.4581157 59.8069299,94.1691366 L68.1985511,86.6625076 L76.1029524,93.9739167 C83.6161846,97.9706152 90.3489117,96.9959804 96.3015003,91.0496461 L88.6903842,86.077214 C86.0555838,87.3444956 83.3228994,87.1500081 80.4937976,85.4926529 L75.8096672,80.1305133 L82.1526917,74.5735201 L74.4436917,67.1646842 L68.1014004,73.4032991 L61.6608586,67.0665248 L54.7327302,74.0860196 L60.587435,80.3257333 L54.8302475,85.4926529 C51.1220235,87.4422887 48.4875897,87.5393493 46.7311783,85.8827265 C44.584331,84.0301513 44.2917791,81.397795 46.0481905,78.0827181 L67.8081152,55.3679773 L89.8609585,77.888597 C91.7152539,81.3007344 91.2273007,84.0301513 88.6903842,86.077214 L96.3015003,91.0496461 C101.180299,86.077214 101.766136,79.9352934 98.1554291,72.623518 L75.3220807,48.3495813 L98.4483476,23.6841059 Z M101.668325,41.0381357 L94.0572091,33.432981 L86.8361622,41.1351962 L94.4476449,48.5436659 L87.51915,55.6605875 L94.1547264,63.4605959 L101.961244,55.6605875 L109.57236,48.5436659 L109.474476,48.3495447 C110.938335,45.2296879 113.474885,43.5723326 116.988075,43.3771126 C120.695932,43.7675526 122.550228,45.5219684 122.648111,48.3495447 C122.842779,51.0793279 120.988851,52.8337438 116.988075,53.6135248 C113.572769,52.9308043 111.036219,51.1763885 109.57236,48.5436659 L101.961244,55.6605875 C107.327995,61.4124344 112.206794,64.240377 116.500488,64.1422176 C125.282545,63.7528765 130.55178,59.9502991 132.21104,52.5414632 C134.16212,46.1068958 132.503226,40.5506351 127.136841,35.9682767 C120.695932,31.4833451 113.76817,31.4833451 106.54749,35.8704836 L101.668325,41.0381357 Z M50.3416284,40.7448296 L43.0230642,33.0437131 L35.411948,40.6474027 L30.5331497,35.4808494 C23.3121028,31.093711 16.384341,31.093711 9.94379923,35.5782763 C4.57704767,40.1602684 2.82026965,45.7172616 4.7724489,52.1514628 C6.52849371,59.560665 11.797728,63.3625098 20.579785,63.7525835 L20.0918319,53.2238907 C16.0910559,52.4433771 14.2371271,50.6885949 14.4325284,47.959178 C14.5300457,45.131968 16.384341,43.3771859 20.0918319,42.9867459 C23.507504,43.1819659 25.8490193,44.9374806 26.8249256,48.154398 L26.9224429,48.4466786 C25.9469032,50.8841812 23.6046547,52.5415365 20.0918319,53.2238907 L20.579785,63.7525835 C24.8731129,63.849644 29.752278,61.0220677 35.2165468,55.2709534 L43.0230642,63.069863 L49.6590072,55.2709534 L42.7305122,48.154398 L50.3416284,40.7448296 Z" id="Combined-Shape" fill="#E50018"></path>
    </g>
</svg>